# xmcd CD database file
#
# Track frame offsets:
#	150
#	26519
#	42605
#	59602
#	76701
#	95884
#	109837
#	127656
#	143596
#	159123
#	174267
#	190805
#	206557
#	219884
#	235340
#	249391
#	265704
#	282550
#
# Disc length: 3966 seconds
#
# Revision: 1
# Processed by: cddbd v1.5.2PL0 Copyright (c) Steve Scherf et al.
# Submitted via: CDex 1.50Beta7
#
DISCID=f30f7c12
DTITLE=VICTOR E LEO - IRMÃOS AO VIVO
DYEAR=2015
DGENRE=Country
TTITLE0=ABERTURA \ NA LINHA DO TEMPO
TTITLE1=NOITE FRIA
TTITLE2=10 MINUTOS LONGE DE VOCÊ
TTITLE3=ESCURIDÃO ILUMINADA
TTITLE4=CONHEÇO PELO CHEIRO
TTITLE5=SIMPLES ASSIM
TTITLE6=ESTRADA VERMELHA
TTITLE7=TEMPO DE AMOR
TTITLE8=MOMENTOS
TTITLE9=SABOR DOS VENTOS
TTITLE10=CAMINHOS DIFERENTES
TTITLE11=PRIMEIROS ERROS (CHOVE)
TTITLE12=VAMOS FUGIR (GIVE ME YOUR LOVE)
TTITLE13=NOSSA TRILHA
TTITLE14=DÉCIMO QUINTO ANDAR
TTITLE15=ANJO OU FERA
TTITLE16=VAI ME PERDOANDO
TTITLE17=COMO EU AMEI
EXTD=YEAR: 2015
EXTT0=
EXTT1=
EXTT2=
EXTT3=
EXTT4=
EXTT5=
EXTT6=
EXTT7=
EXTT8=
EXTT9=
EXTT10=
EXTT11=
EXTT12=
EXTT13=
EXTT14=
EXTT15=
EXTT16=
EXTT17=
PLAYORDER=
